<svg xmlns="http://www.w3.org/2000/svg" viewBox="0 0 36 36"><path fill="#FFF" fill-rule="evenodd" d="M27.4 9.57a5.2 5.2 0 0 1 2.6 4.5v7.86c0 1.86-1 3.57-2.6 4.5l-6.8 3.93a5.2 5.2 0 0 1-5.2 0l-6.8-3.93a5.2 5.2 0 0 1-2.6-4.5v-7.86a5.2 5.2 0 0 1 2.6-4.5l6.8-3.92a5.2 5.2 0 0 1 5.2 0l6.8 3.92ZM16.31 7.43 9.7 11.26A3.37 3.37 0 0 0 8 14.18v7.65c0 1.2.64 2.32 1.69 2.92l6.62 3.82c1.05.6 2.33.6 3.38 0l6.62-3.82A3.37 3.37 0 0 0 28 21.83v-7.65c0-1.2-.64-2.32-1.69-2.92L19.7 7.43a3.37 3.37 0 0 0-3.38 0Zm3.08 2.14 5.22 3.02c.86.49 1.39 1.4 1.39 2.4v6.03c0 1-.53 1.9-1.39 2.4l-5.22 3.02c-.86.5-1.92.5-2.78 0l-5.22-3.02a2.77 2.77 0 0 1-1.39-2.4V15c0-1 .53-1.91 1.38-2.4l5.23-3.02c.86-.5 1.92-.5 2.78 0ZM15 21h6v-6h-6v6Z"/></svg>